<svg width="256" height="63" viewBox="0 0 256 63" fill="none" xmlns="http://www.w3.org/2000/svg">
<path d="M9.67188 7.4929C9.61884 7.02225 9.40009 6.65767 9.01562 6.39915C8.63116 6.13731 8.14725 6.00639 7.56392 6.00639C7.14631 6.00639 6.78504 6.07268 6.48011 6.20526C6.17519 6.33452 5.93821 6.51349 5.76918 6.74219C5.60346 6.96757 5.5206 7.22443 5.5206 7.51278C5.5206 7.75473 5.57694 7.96354 5.68963 8.1392C5.80563 8.31487 5.95644 8.46236 6.14205 8.58168C6.33097 8.69768 6.53314 8.79545 6.74858 8.875C6.96402 8.95123 7.17116 9.0142 7.37003 9.06392L8.36435 9.32244C8.68916 9.40199 9.02225 9.50971 9.36364 9.6456C9.70502 9.78149 10.0215 9.96046 10.3132 10.1825C10.6049 10.4046 10.8402 10.6797 11.0192 11.0078C11.2015 11.3359 11.2926 11.7287 11.2926 12.1861C11.2926 12.7628 11.1435 13.2749 10.8452 13.7223C10.5502 14.1697 10.121 14.5227 9.55753 14.7812C8.9974 15.0398 8.3196 15.169 7.52415 15.169C6.76184 15.169 6.10227 15.0481 5.54545 14.8061C4.98864 14.5642 4.55279 14.2211 4.23793 13.777C3.92306 13.3295 3.74905 12.7992 3.71591 12.1861H5.2571C5.28693 12.554 5.40625 12.8606 5.61506 13.1058C5.82718 13.3478 6.0973 13.5284 6.42543 13.6477C6.75687 13.7637 7.11979 13.8217 7.5142 13.8217C7.94839 13.8217 8.33452 13.7538 8.67259 13.6179C9.01397 13.4787 9.28243 13.2865 9.47798 13.0412C9.67353 12.7926 9.77131 12.5026 9.77131 12.1712C9.77131 11.8696 9.68513 11.6226 9.51278 11.4304C9.34375 11.2382 9.1134 11.0791 8.82173 10.9531C8.53338 10.8272 8.20691 10.7161 7.84233 10.62L6.6392 10.2919C5.82386 10.0698 5.17756 9.74337 4.70028 9.3125C4.22633 8.88163 3.98935 8.31155 3.98935 7.60227C3.98935 7.01562 4.14844 6.50355 4.46662 6.06605C4.7848 5.62855 5.21567 5.28883 5.75923 5.04688C6.30279 4.80161 6.91596 4.67898 7.59872 4.67898C8.28812 4.67898 8.89631 4.79995 9.4233 5.0419C9.9536 5.28385 10.3712 5.61695 10.6761 6.04119C10.9811 6.46212 11.1402 6.94602 11.1534 7.4929H9.67188ZM16.3002 15.1541C15.5479 15.1541 14.8999 14.9934 14.3564 14.6719C13.8161 14.3471 13.3985 13.8913 13.1035 13.3047C12.8118 12.7147 12.666 12.0237 12.666 11.2315C12.666 10.4493 12.8118 9.75994 13.1035 9.16335C13.3985 8.56676 13.8095 8.10109 14.3365 7.76633C14.8668 7.43158 15.4866 7.2642 16.1958 7.2642C16.6267 7.2642 17.0443 7.33546 17.4487 7.47798C17.853 7.6205 18.216 7.84422 18.5375 8.14915C18.859 8.45407 19.1125 8.85014 19.2981 9.33736C19.4837 9.82126 19.5765 10.4096 19.5765 11.1023V11.6293H13.5062V10.5156H18.1199C18.1199 10.1245 18.0403 9.77817 17.8812 9.47656C17.7221 9.17164 17.4984 8.93134 17.21 8.75568C16.925 8.58002 16.5903 8.49219 16.2058 8.49219C15.7882 8.49219 15.4236 8.59493 15.112 8.80043C14.8038 9.0026 14.5652 9.26776 14.3961 9.59588C14.2304 9.92069 14.1475 10.2737 14.1475 10.6548V11.5249C14.1475 12.0353 14.237 12.4695 14.416 12.8274C14.5983 13.1854 14.8519 13.4588 15.1767 13.6477C15.5015 13.8333 15.881 13.9261 16.3152 13.9261C16.5969 13.9261 16.8538 13.8864 17.0858 13.8068C17.3178 13.724 17.5183 13.6013 17.6873 13.4389C17.8564 13.2765 17.9856 13.076 18.0751 12.8374L19.4821 13.0909C19.3694 13.5052 19.1672 13.8681 18.8755 14.1797C18.5872 14.4879 18.2243 14.7282 17.7868 14.9006C17.3526 15.0696 16.8571 15.1541 16.3002 15.1541ZM22.7124 4.81818V15H21.2259V4.81818H22.7124ZM28.0034 15.1541C27.251 15.1541 26.603 14.9934 26.0595 14.6719C25.5192 14.3471 25.1016 13.8913 24.8066 13.3047C24.515 12.7147 24.3691 12.0237 24.3691 11.2315C24.3691 10.4493 24.515 9.75994 24.8066 9.16335C25.1016 8.56676 25.5126 8.10109 26.0396 7.76633C26.5699 7.43158 27.1897 7.2642 27.899 7.2642C28.3298 7.2642 28.7475 7.33546 29.1518 7.47798C29.5562 7.6205 29.9191 7.84422 30.2406 8.14915C30.5621 8.45407 30.8156 8.85014 31.0012 9.33736C31.1868 9.82126 31.2797 10.4096 31.2797 11.1023V11.6293H25.2093V10.5156H29.823C29.823 10.1245 29.7434 9.77817 29.5843 9.47656C29.4252 9.17164 29.2015 8.93134 28.9132 8.75568C28.6281 8.58002 28.2934 8.49219 27.9089 8.49219C27.4913 8.49219 27.1267 8.59493 26.8152 8.80043C26.5069 9.0026 26.2683 9.26776 26.0993 9.59588C25.9335 9.92069 25.8507 10.2737 25.8507 10.6548V11.5249C25.8507 12.0353 25.9402 12.4695 26.1191 12.8274C26.3014 13.1854 26.555 13.4588 26.8798 13.6477C27.2046 13.8333 27.5841 13.9261 28.0183 13.9261C28.3 13.9261 28.5569 13.8864 28.7889 13.8068C29.0209 13.724 29.2214 13.6013 29.3904 13.4389C29.5595 13.2765 29.6887 13.076 29.7782 12.8374L31.1852 13.0909C31.0725 13.5052 30.8703 13.8681 30.5787 14.1797C30.2903 14.4879 29.9274 14.7282 29.4899 14.9006C29.0557 15.0696 28.5602 15.1541 28.0034 15.1541ZM36.1456 15.1541C35.4065 15.1541 34.7701 14.9867 34.2365 14.652C33.7062 14.3139 33.2985 13.8482 33.0135 13.255C32.7285 12.6617 32.5859 11.9822 32.5859 11.2166C32.5859 10.4411 32.7318 9.75663 33.0234 9.16335C33.3151 8.56676 33.7261 8.10109 34.2564 7.76633C34.7867 7.43158 35.4115 7.2642 36.1307 7.2642C36.7107 7.2642 37.2277 7.37192 37.6818 7.58736C38.1359 7.79948 38.5021 8.09777 38.7805 8.48224C39.0623 8.86671 39.2296 9.31581 39.2827 9.82955H37.8359C37.7564 9.47159 37.5741 9.16335 37.2891 8.90483C37.0073 8.64631 36.6295 8.51705 36.1555 8.51705C35.7412 8.51705 35.3783 8.62642 35.0668 8.84517C34.7585 9.06061 34.5182 9.36884 34.3459 9.76989C34.1735 10.1676 34.0874 10.6383 34.0874 11.1818C34.0874 11.7386 34.1719 12.2192 34.3409 12.6236C34.5099 13.0279 34.7486 13.3411 35.0568 13.5632C35.3684 13.7853 35.7346 13.8963 36.1555 13.8963C36.4373 13.8963 36.6925 13.8449 36.9212 13.7422C37.1532 13.6361 37.3471 13.4853 37.5028 13.2898C37.6619 13.0942 37.773 12.8589 37.8359 12.5838H39.2827C39.2296 13.0777 39.0689 13.5185 38.8004 13.9062C38.532 14.294 38.1723 14.599 37.7216 14.821C37.2741 15.0431 36.7488 15.1541 36.1456 15.1541ZM44.437 7.36364V8.55682H40.2658V7.36364H44.437ZM41.3844 5.53409H42.8709V12.7578C42.8709 13.0462 42.914 13.2633 43.0002 13.4091C43.0864 13.5516 43.1974 13.6494 43.3333 13.7024C43.4725 13.7521 43.6233 13.777 43.7857 13.777C43.905 13.777 44.0094 13.7687 44.0989 13.7521C44.1884 13.7356 44.258 13.7223 44.3077 13.7124L44.5762 14.9403C44.49 14.9735 44.3674 15.0066 44.2083 15.0398C44.0492 15.0762 43.8503 15.0961 43.6117 15.0994C43.2206 15.1061 42.856 15.0365 42.5179 14.8906C42.1799 14.7448 41.9064 14.5194 41.6976 14.2145C41.4888 13.9096 41.3844 13.5268 41.3844 13.0661V5.53409ZM51.4419 4.81818V15H49.9057V4.81818H51.4419ZM57.1245 7.36364V8.55682H52.9533V7.36364H57.1245ZM54.0719 5.53409H55.5584V12.7578C55.5584 13.0462 55.6015 13.2633 55.6877 13.4091C55.7739 13.5516 55.8849 13.6494 56.0208 13.7024C56.16 13.7521 56.3108 13.777 56.4732 13.777C56.5925 13.777 56.6969 13.7687 56.7864 13.7521C56.8759 13.7356 56.9455 13.7223 56.9952 13.7124L57.2637 14.9403C57.1775 14.9735 57.0549 15.0066 56.8958 15.0398C56.7367 15.0762 56.5378 15.0961 56.2992 15.0994C55.9081 15.1061 55.5435 15.0365 55.2054 14.8906C54.8674 14.7448 54.5939 14.5194 54.3851 14.2145C54.1763 13.9096 54.0719 13.5268 54.0719 13.0661V5.53409ZM61.978 15.1541C61.2256 15.1541 60.5777 14.9934 60.0341 14.6719C59.4938 14.3471 59.0762 13.8913 58.7812 13.3047C58.4896 12.7147 58.3438 12.0237 58.3438 11.2315C58.3438 10.4493 58.4896 9.75994 58.7812 9.16335C59.0762 8.56676 59.4872 8.10109 60.0142 7.76633C60.5445 7.43158 61.1643 7.2642 61.8736 7.2642C62.3045 7.2642 62.7221 7.33546 63.1264 7.47798C63.5308 7.6205 63.8937 7.84422 64.2152 8.14915C64.5367 8.45407 64.7902 8.85014 64.9759 9.33736C65.1615 9.82126 65.2543 10.4096 65.2543 11.1023V11.6293H59.1839V10.5156H63.7976C63.7976 10.1245 63.718 9.77817 63.5589 9.47656C63.3999 9.17164 63.1761 8.93134 62.8878 8.75568C62.6027 8.58002 62.268 8.49219 61.8835 8.49219C61.4659 8.49219 61.1013 8.59493 60.7898 8.80043C60.4815 9.0026 60.2429 9.26776 60.0739 9.59588C59.9081 9.92069 59.8253 10.2737 59.8253 10.6548V11.5249C59.8253 12.0353 59.9148 12.4695 60.0938 12.8274C60.276 13.1854 60.5296 13.4588 60.8544 13.6477C61.1792 13.8333 61.5587 13.9261 61.9929 13.9261C62.2746 13.9261 62.5315 13.8864 62.7635 13.8068C62.9955 13.724 63.196 13.6013 63.3651 13.4389C63.5341 13.2765 63.6634 13.076 63.7528 12.8374L65.1598 13.0909C65.0471 13.5052 64.8449 13.8681 64.5533 14.1797C64.2649 14.4879 63.902 14.7282 63.4645 14.9006C63.0303 15.0696 62.5348 15.1541 61.978 15.1541ZM66.9036 15V7.36364H68.3304V8.60653H68.4249C68.584 8.18561 68.8442 7.85748 69.2054 7.62216C69.5667 7.38352 69.9992 7.2642 70.503 7.2642C71.0134 7.2642 71.441 7.38352 71.7857 7.62216C72.1337 7.8608 72.3906 8.18892 72.5563 8.60653H72.6358C72.8181 8.19886 73.1081 7.87405 73.5059 7.6321C73.9036 7.38684 74.3775 7.2642 74.9277 7.2642C75.6204 7.2642 76.1855 7.4813 76.623 7.91548C77.0639 8.34967 77.2843 9.00426 77.2843 9.87926V15H75.7978V10.0185C75.7978 9.50142 75.6569 9.12689 75.3752 8.89489C75.0935 8.66288 74.757 8.54688 74.3659 8.54688C73.882 8.54688 73.5059 8.69602 73.2374 8.99432C72.9689 9.2893 72.8347 9.6688 72.8347 10.1328V15H71.3532V9.92401C71.3532 9.50971 71.2239 9.17661 70.9654 8.92472C70.7069 8.67282 70.3704 8.54688 69.9561 8.54688C69.6744 8.54688 69.4142 8.62145 69.1756 8.7706C68.9403 8.91643 68.7497 9.12026 68.6039 9.3821C68.4614 9.64394 68.3901 9.94721 68.3901 10.2919V15H66.9036Z" fill="#2A3337"/>
<g filter="url(#filter0_dd_591_6088)">
<rect x="3" y="24" width="250" height="36" rx="4" fill="white"/>
<rect x="4" y="25" width="248" height="34" rx="3" stroke="#2B87CF" stroke-width="2"/>
<path d="M11.6761 37.9119V36.8182H19.3125V37.9119H16.1108V47H14.8778V37.9119H11.6761ZM23.1506 47.1591C22.4148 47.1591 21.7801 46.9967 21.2464 46.6719C20.7161 46.3438 20.3068 45.8864 20.0185 45.2997C19.7334 44.7098 19.5909 44.0237 19.5909 43.2415C19.5909 42.4593 19.7334 41.7699 20.0185 41.1733C20.3068 40.5734 20.7079 40.1061 21.2216 39.7713C21.7386 39.4332 22.3419 39.2642 23.0312 39.2642C23.429 39.2642 23.8217 39.3305 24.2095 39.4631C24.5973 39.5956 24.9503 39.8111 25.2685 40.1094C25.5866 40.4044 25.8402 40.7955 26.0291 41.2827C26.218 41.7699 26.3125 42.3698 26.3125 43.0824V43.5795H20.4261V42.5653H25.1193C25.1193 42.1345 25.0331 41.75 24.8608 41.4119C24.6918 41.0739 24.4498 40.8071 24.1349 40.6115C23.8234 40.416 23.4555 40.3182 23.0312 40.3182C22.5639 40.3182 22.1596 40.4342 21.8182 40.6662C21.4801 40.8949 21.2199 41.1932 21.0376 41.5611C20.8554 41.929 20.7642 42.3234 20.7642 42.7443V43.4205C20.7642 43.9972 20.8636 44.486 21.0625 44.8871C21.2647 45.2848 21.5447 45.5881 21.9027 45.7969C22.2607 46.0024 22.6766 46.1051 23.1506 46.1051C23.4588 46.1051 23.7372 46.062 23.9858 45.9759C24.2377 45.8864 24.4548 45.7538 24.6371 45.5781C24.8194 45.3991 24.9602 45.1771 25.0597 44.9119L26.1932 45.2301C26.0739 45.6146 25.8733 45.9527 25.5916 46.2443C25.3099 46.5327 24.9619 46.758 24.5476 46.9205C24.1333 47.0795 23.6676 47.1591 23.1506 47.1591ZM28.7672 39.3636L30.5968 42.4858L32.4263 39.3636H33.7786L31.3127 43.1818L33.7786 47H32.4263L30.5968 44.0369L28.7672 47H27.415L29.8411 43.1818L27.415 39.3636H28.7672ZM38.7738 39.3636V40.358H34.8164V39.3636H38.7738ZM35.9698 37.5341H37.1431V44.8125C37.1431 45.1439 37.1912 45.3925 37.2873 45.5582C37.3867 45.7206 37.5127 45.83 37.6651 45.8864C37.8209 45.9394 37.985 45.9659 38.1573 45.9659C38.2866 45.9659 38.3926 45.9593 38.4755 45.946C38.5584 45.9295 38.6246 45.9162 38.6744 45.9062L38.913 46.9602C38.8335 46.9901 38.7224 47.0199 38.5799 47.0497C38.4374 47.0829 38.2567 47.0994 38.038 47.0994C37.7066 47.0994 37.3817 47.0282 37.0636 46.8857C36.7487 46.7431 36.4869 46.526 36.2781 46.2344C36.0726 45.9427 35.9698 45.5748 35.9698 45.1307V37.5341Z" fill="#2A3337"/>
<path d="M231.667 40.4493C232.552 41.6676 233.589 42.7587 234.752 43.6945C234.898 43.812 235.102 43.812 235.248 43.6945C236.411 42.7587 237.448 41.6676 238.333 40.4493" stroke="#54626D" stroke-linecap="round" stroke-linejoin="round"/>
</g>
<defs>
<filter id="filter0_dd_591_6088" x="0" y="21" width="256" height="42" filterUnits="userSpaceOnUse" color-interpolation-filters="sRGB">
<feFlood flood-opacity="0" result="BackgroundImageFix"/>
<feColorMatrix in="SourceAlpha" type="matrix" values="0 0 0 0 0 0 0 0 0 0 0 0 0 0 0 0 0 0 127 0" result="hardAlpha"/>
<feMorphology radius="1" operator="dilate" in="SourceAlpha" result="effect1_dropShadow_591_6088"/>
<feOffset/>
<feGaussianBlur stdDeviation="1"/>
<feComposite in2="hardAlpha" operator="out"/>
<feColorMatrix type="matrix" values="0 0 0 0 0.168627 0 0 0 0 0.529412 0 0 0 0 0.811765 0 0 0 0.03 0"/>
<feBlend mode="normal" in2="BackgroundImageFix" result="effect1_dropShadow_591_6088"/>
<feColorMatrix in="SourceAlpha" type="matrix" values="0 0 0 0 0 0 0 0 0 0 0 0 0 0 0 0 0 0 127 0" result="hardAlpha"/>
<feMorphology radius="0.5" operator="dilate" in="SourceAlpha" result="effect2_dropShadow_591_6088"/>
<feOffset/>
<feGaussianBlur stdDeviation="0.5"/>
<feComposite in2="hardAlpha" operator="out"/>
<feColorMatrix type="matrix" values="0 0 0 0 0.169439 0 0 0 0 0.531215 0 0 0 0 0.810561 0 0 0 0.06 0"/>
<feBlend mode="normal" in2="effect1_dropShadow_591_6088" result="effect2_dropShadow_591_6088"/>
<feBlend mode="normal" in="SourceGraphic" in2="effect2_dropShadow_591_6088" result="shape"/>
</filter>
</defs>
</svg>
